<mxfile host="app.diagrams.net" modified="2024-07-21T16:13:22.198Z" agent="Mozilla/5.0 (Windows NT 10.0; Win64; x64) AppleWebKit/537.36 (KHTML, like Gecko) Chrome/126.0.0.0 Safari/537.36" version="24.7.1" etag="3nHK97POT47dD5T6z-78" type="github">
  <diagram name="PÃ¡gina-1" id="iXr9NkOBeNVls9SYtHVv">
    <mxGraphModel>
      <root>
        <mxCell id="0" />
        <mxCell id="1" parent="0" />
      </root>
    </mxGraphModel>
  </diagram>
</mxfile>
